<svg xmlns="http://www.w3.org/2000/svg" viewBox="0 0 68 68"><path fill-rule="evenodd" d="M37.97 67.018c18.389-2.41 31.343-19.27 28.933-37.66S47.633-1.985 29.243.425-2.1 19.695.31 38.085s19.27 31.343 37.66 28.933m.91-27.35c1.629 2.043 3.584 3.444 6.667 3.04 2.587-.34 4.07-1.868 3.831-3.682-.284-2.172-2.083-2.719-5.099-3.61l-1.651-.474c-4.765-1.356-8.076-3.405-8.751-8.56-.623-4.752 2.473-8.838 8.052-9.569 3.972-.52 7.008.507 9.548 3.909l-4.45 3.803c-1.327-1.806-2.582-2.422-4.374-2.187-1.828.24-2.838 1.57-2.636 3.106.249 1.901 1.51 2.516 4.346 3.345l1.65.472c5.61 1.616 8.916 3.574 9.61 8.864.747 5.705-3.262 9.407-9.195 10.185-5.803.76-9.918-1.552-12.233-4.986zm-21.996 3.438c1.212 1.642 2.302 3.013 4.449 2.732h-.003c2.052-.269 3.242-1.25 2.828-4.416l-2.824-21.545 6.247-.818 2.834 21.629c.86 6.559-2.542 10.041-8.079 10.767-5 .655-8.24-1.589-10.128-4.559z" clip-rule="evenodd"/></svg>