<svg xmlns="http://www.w3.org/2000/svg" viewBox="0 0 71 71"><path fill-rule="evenodd" d="M35.025 70.498c19.33 0 35-15.67 35-35s-15.67-35-35-35-35 15.67-35 35 15.67 35 35 35m4.644-28.142c1.407 2.333 3.238 4.046 6.479 4.046 2.72 0 4.457-1.38 4.457-3.287 0-2.282-1.784-3.091-4.78-4.42l-1.643-.714c-4.74-2.046-7.884-4.612-7.884-10.03 0-4.996 3.753-8.8 9.617-8.8 4.175 0 7.174 1.474 9.337 5.333l-5.113 3.328c-1.126-2.046-2.34-2.852-4.224-2.852-1.922 0-3.145 1.237-3.145 2.852 0 1.999 1.22 2.805 4.039 4.045l1.642.712c5.578 2.43 8.729 4.901 8.729 10.46 0 5.997-4.644 9.28-10.88 9.28-6.1 0-10.04-2.946-11.967-6.808zm-23.196.576c1.03 1.86 1.97 3.425 4.227 3.425h-.002c2.157 0 3.52-.853 3.52-4.18V19.53h6.565v22.735c0 6.894-3.986 10.033-9.806 10.033-5.255 0-8.3-2.758-9.85-6.082z" clip-rule="evenodd"/></svg>