<svg xmlns="http://www.w3.org/2000/svg" viewBox="0 0 71 71"><path fill-rule="evenodd" d="M56.28 63.466c15.378-11.409 18.595-33.124 7.186-48.502C52.056-.413 30.342-3.63 14.964 7.778-.414 19.188-3.63 40.903 7.778 56.28c11.41 15.378 33.125 18.595 48.502 7.186M19.543 35.314l2.419-.696q2.01-.579 2.896-.03.882.552 1.05 2.458.179 1.985-.635 3.093-.814 1.105-2.95 1.72l-2.146.618zM5.326 44.379c-2.57-8.93 9.11-20.13 26.087-25.017 16.976-4.886 32.824-1.608 35.394 7.322s-9.11 20.134-26.086 25.02-32.825 1.605-35.395-7.325m21.286-1.438a6.5 6.5 0 0 0 1.943-2.088q.65-1.075.919-2.214a7.5 7.5 0 0 0 .157-2.395q-.27-3.043-2.137-4.245-1.87-1.203-4.931-.323l-6.788 1.954 1.513 17.112 3.53-1.016-.402-4.547 3.026-.87q1.997-.579 3.17-1.368m12.106-10.794.672 7.57 3.559-1.023-.706-7.964v-.005c-.147-1.616-.22-2.423-1.631-3.128q-1.413-.706-4.359.142l-3.12.898-.402-4.55-3.502 1.008 1.514 17.115 3.504-1.01-.869-9.804 2.797-.805q1.35-.39 1.889-.061.542.324.654 1.617m18.307-1.438a7.5 7.5 0 0 0 .157-2.395q-.269-3.043-2.14-4.241-1.868-1.204-4.93-.323l-6.786 1.953 1.514 17.112 3.53-1.016-.403-4.55 3.023-.87q2.003-.579 3.173-1.368a6.5 6.5 0 0 0 1.943-2.088 7.6 7.6 0 0 0 .919-2.214M47.1 27.383l2.415-.696c1.34-.385 2.011-.578 2.896-.029q.885.55 1.054 2.457.172 1.987-.638 3.094-.81 1.105-2.95 1.72l-2.147.617z" clip-rule="evenodd"/></svg>