<svg xmlns="http://www.w3.org/2000/svg" viewBox="0 0 71 71"><path fill-rule="evenodd" d="M35 70.498c19.33 0 35-15.67 35-35s-15.67-35-35-35-35 15.67-35 35 15.67 35 35 35m23.358-35.605c0-3.091-3.871-6.021-9.807-7.838 1.37-6.049.762-10.863-1.922-12.405a4.17 4.17 0 0 0-2.12-.531v-.01c-2.616 0-6.04 1.865-9.504 5.099-3.46-3.213-6.887-5.06-9.502-5.06v.01c-.797 0-1.523.171-2.149.53-2.673 1.543-3.272 6.345-1.893 12.377-5.917 1.828-9.77 4.746-9.77 7.828 0 3.092 3.872 6.022 9.808 7.837-1.37 6.05-.762 10.865 1.922 12.405.618.362 1.341.533 2.138.533 2.618 0 6.042-1.865 9.505-5.099 3.46 3.215 6.885 5.06 9.502 5.06a4.24 4.24 0 0 0 2.149-.533c2.673-1.54 3.272-6.343 1.894-12.374 5.897-1.816 9.75-4.747 9.75-7.829m-21.84-14.202c3.096-2.876 6.001-4.454 7.98-4.46v.007c.438 0 .79.088 1.085.25 1.293.742 1.855 3.565 1.418 7.2a29 29 0 0 1-.486 2.796 46 46 0 0 0-6.04-1.037 46 46 0 0 0-3.957-4.756m-11.015-4.423c1.97 0 4.89 1.57 7.992 4.433a45 45 0 0 0-3.93 4.746c-2.038.21-4.06.559-6.05 1.046q-.315-1.366-.495-2.757c-.447-3.636.105-6.46 1.39-7.21.284-.17.656-.249 1.093-.249zm20.47 12.28a43 43 0 0 1-1.284 3.757 51 51 0 0 0-2.615-4.509c1.35.2 2.654.447 3.9.753zM41.616 38.68a51 51 0 0 1-2.293 3.634 49.5 49.5 0 0 1-8.579.01 49.5 49.5 0 0 1-4.28-7.4 50.7 50.7 0 0 1 4.263-7.428 49.5 49.5 0 0 1 8.577-.012 52 52 0 0 1 2.302 3.617 49 49 0 0 1 1.98 3.784 53 53 0 0 1-1.97 3.795m3.072-1.236c.513 1.273.953 2.549 1.312 3.785a42 42 0 0 1-3.918.76 53 53 0 0 0 2.606-4.545m-9.645 10.15a39 39 0 0 1-2.644-3.045c.855.038 1.73.068 2.615.068.895 0 1.78-.02 2.645-.068a37 37 0 0 1-2.616 3.045m-7.077-5.604a43 43 0 0 1-3.901-.75c.352-1.228.79-2.494 1.283-3.758.391.759.802 1.521 1.249 2.283q.67 1.141 1.369 2.225m7.029-19.795c.884.914 1.77 1.931 2.644 3.045a58 58 0 0 0-2.615-.068c-.895 0-1.78.02-2.645.068a37 37 0 0 1 2.616-3.045m-7.04 5.604a53 53 0 0 0-2.605 4.537q-.749-1.861-1.312-3.786a45 45 0 0 1 3.918-.75M19.35 39.706c-3.368-1.435-5.546-3.32-5.546-4.813s2.178-3.387 5.546-4.812a29 29 0 0 1 2.635-.96 46 46 0 0 0 2.138 5.792 45 45 0 0 0-2.11 5.763 29 29 0 0 1-2.663-.97m5.118 13.592c-1.293-.74-1.855-3.567-1.418-7.199.105-.894.276-1.837.486-2.798 1.863.457 3.899.81 6.04 1.038a46 46 0 0 0 3.957 4.757c-3.102 2.881-6.013 4.46-7.992 4.46a2.3 2.3 0 0 1-1.073-.256zM47.03 46.05c.447 3.634-.105 6.46-1.39 7.21-.284.17-.656.247-1.093.247-1.97 0-4.89-1.57-7.992-4.434a45 45 0 0 0 3.93-4.744 44.4 44.4 0 0 0 6.05-1.046c.219.96.388 1.882.495 2.767m3.661-6.345c-.816.352-1.71.667-2.634.96a46 46 0 0 0-2.14-5.792 45 45 0 0 0 2.11-5.763q1.361.42 2.674.97c3.368 1.435 5.546 3.32 5.546 4.812-.01 1.494-2.188 3.388-5.556 4.813m-15.676-.465a4.348 4.348 0 1 0 0-8.696 4.348 4.348 0 0 0 0 8.696" clip-rule="evenodd"/></svg>