<svg xmlns="http://www.w3.org/2000/svg" viewBox="0 0 82 82"><path fill-rule="evenodd" d="M68.834 70.708C52.321 85.963 26.566 84.944 11.31 68.43s-14.236-42.268 2.278-57.524S55.856-3.33 71.112 13.184s14.236 42.268-2.278 57.524m-6.97-8.676c2.882-2.662 2.28-8.793-1.14-15.889 6.819-3.93 10.782-8.643 9.909-12.471a5.3 5.3 0 0 0-1.33-2.433l.009-.008c-2.254-2.44-6.94-4.025-12.935-4.468.014-5.992-1.215-10.775-3.466-13.213l-.01.009c-.686-.743-1.47-1.272-2.344-1.546-3.739-1.164-8.73 2.413-13.165 8.891-6.798-3.94-12.834-5.018-15.707-2.364-2.881 2.662-2.279 8.793 1.142 15.887-6.82 3.932-10.783 8.645-9.908 12.471.195.888.659 1.71 1.345 2.453 2.253 2.439 6.94 4.025 12.935 4.468-.016 5.993 1.212 10.773 3.466 13.212a5.4 5.4 0 0 0 2.346 1.544c3.737 1.166 8.73-2.411 13.164-8.89 6.77 3.933 12.817 5 15.69 2.347M56.297 29.45c5.345.408 9.318 1.757 11.027 3.597l-.007.006c.377.408.598.811.702 1.226.421 1.844-1.726 4.799-5.49 7.52a37 37 0 0 1-3.024 1.954 58.5 58.5 0 0 0-4.234-6.52 59 59 0 0 0 1.026-7.783m-5.361-14.075c1.695 1.836 2.746 5.91 2.748 11.265a57 57 0 0 0-7.807.424 56 56 0 0 0-6.183-4.737 36 36 0 0 1 2.143-2.836c3.004-3.547 6.11-5.463 7.917-4.912.404.118.796.397 1.172.805zm6.177 29.65q-2.256 1.127-4.606 2.04a65 65 0 0 0 1.951-6.32 54 54 0 0 1 2.657 4.283zM43.922 49.69q-2.659.61-5.36.992a63 63 0 0 1-7.396-7.987 63 63 0 0 1 3.212-10.36c3.456-1.105 7-1.916 10.592-2.423a63 63 0 0 1 7.396 7.983 66 66 0 0 1-1.389 5.26 62 62 0 0 1-1.822 5.102 68 68 0 0 1-5.233 1.433m3.797 1.798a51 51 0 0 1-2.398 4.483 53 53 0 0 1-4.082-2.997 67 67 0 0 0 6.48-1.486m-17.763-.25c.09-1.61.276-3.31.561-5.086.7.831 1.427 1.672 2.189 2.496.77.834 1.55 1.642 2.34 2.406a47 47 0 0 1-5.09.185m-.87-11.42a55 55 0 0 1-2.66-4.282 55 55 0 0 1 4.606-2.038 60 60 0 0 0-1.052 3.129 78 78 0 0 0-.895 3.19m24.499-10.492a50 50 0 0 1-.561 5.086 73 73 0 0 0-2.188-2.496 60 60 0 0 0-2.34-2.406 47 47 0 0 1 5.089-.184M42.302 27.59c-2.18.384-4.34.878-6.471 1.477a52 52 0 0 1 2.398-4.483 58 58 0 0 1 4.073 3.006m-18.51 2.23c-1.561-4.375-1.68-8.026-.289-9.312s5.032-.887 9.26 1.025c1.031.458 2.095 1.02 3.164 1.628a59 59 0 0 0-3.557 6.98 57 57 0 0 0-7.188 2.997 37 37 0 0 1-1.39-3.318m-8.26 16.471c-.425-1.84 1.727-4.799 5.488-7.518a37 37 0 0 1 3.027-1.956c1.177 2.13 2.602 4.33 4.232 6.522a59 59 0 0 0-1.026 7.783c-5.356-.41-9.334-1.763-11.038-3.608a2.9 2.9 0 0 1-.685-1.22zm26.18 14.79c-3.001 3.545-6.11 5.463-7.916 4.911-.404-.117-.794-.398-1.17-.806-1.697-1.835-2.749-5.908-2.75-11.265a57 57 0 0 0 7.805-.422 56 56 0 0 0 6.184 4.737 34 34 0 0 1-2.152 2.844m9.066-2.05c-1.031-.459-2.095-1.021-3.163-1.63a58 58 0 0 0 3.556-6.98c2.597-.887 5-1.895 7.188-2.996a38 38 0 0 1 1.398 3.327c1.562 4.374 1.681 8.026.29 9.312-1.4 1.277-5.04.878-9.269-1.034m-9.23-13.242a5.517 5.517 0 1 1 .437-11.025 5.517 5.517 0 0 1-.437 11.025" clip-rule="evenodd"/></svg>