<svg xmlns="http://www.w3.org/2000/svg" viewBox="0 0 22 22"><path fill-rule="evenodd" d="M11 22c6.075 0 11-4.925 11-11S17.075 0 11 0 0 4.925 0 11s4.925 11 11 11M1 11C1 5.49 5.49 1 11 1s10 4.49 10 10-4.49 10-10 10S1 16.51 1 11m1.79-3.66a8.99 8.99 0 0 0 4.29 11.75zm5.67 12.28c.81.24 1.66.37 2.54.37 1.05 0 2.05-.18 2.98-.52l-.04-.078-.02-.042-2.76-7.57zm4.81-12.93s-.49.06-1.03.09l3.24 9.68.9-3 .115-.376c.324-1.057.565-1.844.565-2.534 0-1.11-.4-1.88-.74-2.48l-.117-.191c-.405-.66-.763-1.243-.763-1.919 0-.83.63-1.6 1.51-1.6q.03 0 .06.005.03.004.06.005A8.94 8.94 0 0 0 11 2.01c-3.14 0-5.9 1.61-7.52 4.05.21.01.41.01.58.01.94 0 2.4-.11 2.4-.11.49-.03.54.68.06.74 0 0-.49.06-1.03.08l3.27 9.75 1.97-5.9-1.4-3.84c-.48-.03-.94-.09-.94-.09-.49-.03-.43-.77.05-.75 0 0 1.49.11 2.37.11.94 0 2.4-.11 2.4-.11.49-.03.54.68.06.74m6.39 6.725a9 9 0 0 0-.77-6.725c.04.28.06.59.06.92 0 .91-.17 1.94-.68 3.22l-2.75 7.94a9 9 0 0 0 4.14-5.355" clip-rule="evenodd"/></svg>