<svg width="52" height="52" viewBox="0 0 52 52" fill="none" xmlns="http://www.w3.org/2000/svg">
<path fill-rule="evenodd" clip-rule="evenodd" d="M23.122 51.2531C36.9965 52.9149 49.5912 43.0146 51.2531 29.1402C52.915 15.2657 43.0147 2.67095 29.1402 1.00908C15.2657 -0.652789 2.67098 9.2475 1.00911 23.122C-0.652762 36.9965 9.24752 49.5912 23.122 51.2531ZM34.6566 35.0147C34.467 36.6729 32.98 37.8634 31.3365 37.6756C31.2143 37.662 31.092 37.6403 30.9727 37.6109C29.4756 37.201 28.5192 35.7298 28.7426 34.1814L30.8811 16.3275C31.031 14.7683 32.3107 13.565 33.863 13.5223C35.5176 13.5251 36.8546 14.8797 36.8486 16.5478C36.8478 16.6706 36.8402 16.7925 36.8246 16.9145L34.6566 35.0147ZM16.3534 29.8212C17.9909 30.0173 19.158 31.5147 18.9602 33.1658C18.7624 34.817 17.2748 35.9964 15.6373 35.8003C13.9997 35.6041 12.8327 34.1068 13.0305 32.4556C13.2283 30.8044 14.7159 29.625 16.3534 29.8212ZM25.2392 21.6955C23.5829 21.5898 22.1401 22.8279 21.9795 24.4936L21.0178 32.523C20.7568 34.7024 21.5495 36.1388 22.9091 36.5877C24.4777 37.1089 26.1698 36.2491 26.6899 34.6668C26.754 34.473 26.7979 34.2738 26.8212 34.0712L27.9003 25.0618C28.1017 23.405 26.9336 21.9005 25.2905 21.7007C25.2738 21.6986 25.256 21.6965 25.2392 21.6955Z" fill="white"/>
</svg>
