<svg width="73" height="73" viewBox="0 0 73 73" fill="none" xmlns="http://www.w3.org/2000/svg">
<path fill-rule="evenodd" clip-rule="evenodd" d="M42.8076 71.4915C62.1698 67.971 75.0121 49.4208 71.4915 30.0585C67.971 10.6962 49.4208 -2.14606 30.0585 1.3745C10.6962 4.89505 -2.14603 23.4453 1.37453 42.8075C4.89508 62.1698 23.4453 75.0121 42.8076 71.4915ZM42.3344 42.4574C44.1679 44.5377 46.3143 45.9195 49.5603 45.3293C52.2843 44.834 53.7742 43.1363 53.4269 41.2257C53.0112 38.9395 51.076 38.4542 47.833 37.669L46.058 37.2523C40.9373 36.066 37.3202 34.0686 36.3335 28.6415C35.4236 23.6373 38.4903 19.1445 44.364 18.0765C48.5462 17.3161 51.8185 18.2457 54.6883 21.7172L50.173 25.9815C48.6717 24.1372 47.3087 23.5509 45.4218 23.894C43.4969 24.244 42.4973 25.7059 42.7915 27.3237C43.1555 29.326 44.5243 29.9112 47.5733 30.64L49.3478 31.0537C55.3783 32.4718 58.984 34.3735 59.9966 39.9425C61.0888 45.9493 57.035 50.0839 50.788 51.2198C44.678 52.3308 40.1954 50.0966 37.5613 46.5792L42.3344 42.4574ZM19.2039 47.2589C20.5751 48.9344 21.8021 50.3306 24.0624 49.9197L24.0595 49.9202C26.2206 49.5272 27.43 48.4243 26.824 45.0912L22.6994 22.4067L29.276 21.2109L33.4167 43.9841C34.6724 50.89 31.2514 54.7598 25.4214 55.8199C20.1572 56.777 16.6043 54.5694 14.4473 51.5213L19.2039 47.2589Z" fill="white"/>
</svg>
