<svg width="97" height="98" viewBox="0 0 97 98" fill="none" xmlns="http://www.w3.org/2000/svg">
<path d="M71.8061 91.5247C71.4482 91.7159 71.4783 91.7767 71.8212 91.6006C71.9268 91.557 72.0237 91.4942 72.1069 91.4154C72.1069 91.3516 72.1069 91.3516 71.8061 91.5247ZM72.528 91.1299C72.3565 91.2727 72.3565 91.2727 72.561 91.1785C72.6366 91.1428 72.7057 91.0946 72.7656 91.0358C72.7656 90.9538 72.7174 90.9721 72.528 91.1299ZM72.9971 90.8445C72.8257 90.9872 72.8257 90.9872 73.0302 90.8931C73.1061 90.8566 73.1753 90.8073 73.2348 90.7474C73.2348 90.6715 73.1866 90.6867 72.9971 90.8445ZM73.4724 90.5622C73.3009 90.7049 73.3009 90.7049 73.4994 90.6077C73.6107 90.547 73.7039 90.4832 73.7039 90.465C73.7039 90.3891 73.6558 90.4043 73.4724 90.5622ZM74.113 90.1341C73.7851 90.3557 73.6709 90.4984 73.9716 90.3405C74.1731 90.216 74.516 89.9428 74.4558 89.9428C74.3265 89.9913 74.2182 90.0733 74.11 90.1341H74.113ZM45.3511 0.454934C45.1315 0.470115 44.4729 0.53084 43.8954 0.579421C30.2167 1.83036 17.4193 9.26314 9.30777 20.7129C4.8251 26.9926 1.9113 34.2726 0.814248 41.9333C0.426265 44.6053 0.378143 45.3947 0.378143 49.0169C0.378143 52.6362 0.426265 53.4135 0.814248 56.0854C3.43389 74.3364 16.2945 89.6574 33.7266 95.3352C36.8636 96.3463 40.1509 97.0446 43.8954 97.4727C45.3511 97.6306 51.646 97.6306 53.1017 97.4727C59.5741 96.744 65.039 95.1317 70.4467 92.3475C71.2768 91.9224 71.4332 91.8101 71.3219 91.7159C68.6839 88.1956 66.0682 84.6583 63.475 81.1042L55.7845 70.62L46.1511 56.2129C42.9467 51.3891 39.7095 46.5876 36.4395 41.8089C36.4064 41.8089 36.3643 48.2123 36.3463 56.0216C36.3132 69.7 36.3132 70.2556 36.1418 70.5714C35.9774 70.9529 35.6828 71.2621 35.3117 71.4428C35.0139 71.5855 34.7462 71.6159 33.3236 71.6159H31.6965L31.2724 71.3487C31.0068 71.1767 30.791 70.9368 30.6468 70.6534L30.4423 70.2253L30.4574 51.1848L30.4904 32.1444L30.7882 31.7649C30.9784 31.5316 31.2125 31.3386 31.4769 31.1971C31.8709 31.0058 32.0273 30.9755 33.6545 30.9755C35.5643 30.9755 35.8801 31.0514 36.3824 31.607C40.2849 37.4666 44.1537 43.349 47.9888 49.2538C54.2416 58.8241 62.7773 71.8831 66.9729 78.2896L74.6032 89.9458L74.9792 89.6938C78.6462 87.2337 81.9693 84.2875 84.8592 80.9342C90.9212 73.9298 94.8548 65.3098 96.1889 56.1066C96.5769 53.4347 96.625 52.6423 96.625 49.023C96.625 45.4008 96.5769 44.6265 96.1889 41.9546C93.5693 23.7036 80.7087 8.38262 63.2765 2.70177C60.0186 1.66009 56.6653 0.951113 53.2672 0.585493C52.3558 0.491369 46.1361 0.379027 45.3541 0.461006L45.3511 0.454934ZM65.042 29.8369C65.2657 29.9478 65.4653 30.1027 65.629 30.2925C65.7927 30.4822 65.9173 30.7031 65.9954 30.9421C66.0766 31.1971 66.0917 36.4772 66.0766 48.3702L66.0435 65.4462L63.069 60.8311L60.0764 56.2129V43.8158C60.0764 35.7788 60.1095 31.273 60.1516 31.0514C60.2988 30.5432 60.6365 30.1129 61.093 29.8521C61.4659 29.6608 61.6103 29.6456 63.0991 29.6456C64.4916 29.6456 64.7292 29.6608 65.042 29.8369Z" fill="white"/>
</svg>
