<svg width="52" height="52" viewBox="0 0 52 52" fill="none" xmlns="http://www.w3.org/2000/svg">
<path fill-rule="evenodd" clip-rule="evenodd" d="M23.122 51.2531C36.9965 52.9149 49.5912 43.0146 51.2531 29.1402C52.915 15.2657 43.0147 2.67095 29.1402 1.00908C15.2657 -0.652789 2.67098 9.2475 1.00911 23.122C-0.652762 36.9965 9.24752 49.5912 23.122 51.2531ZM22.4392 12.7822L37.2152 10.9694C37.9232 10.8826 38.5674 11.3863 38.6542 12.094L40.4555 26.7762C36.7748 27.2253 33.4259 24.6082 32.9719 20.9281L32.6495 18.3L29.9276 18.634C28.1586 18.851 26.3758 18.3564 24.9715 17.259C23.5671 16.1616 22.6562 14.5512 22.4392 12.7822ZM16.0314 21.0413L30.8072 19.2286C31.5152 19.1417 32.1596 19.6454 32.2465 20.3534L34.0477 35.0351C30.3672 35.4866 27.0165 32.8718 26.5603 29.192L26.2369 26.5555L23.515 26.8894C19.8341 27.3386 16.4852 24.7215 16.0314 21.0413ZM24.3947 27.4843L9.61874 29.2971C10.0707 32.9809 13.4235 35.6008 17.1071 35.1489L19.8376 34.8139L20.16 37.4418C20.6135 41.1186 23.9571 43.735 27.6351 43.2908L25.8339 28.609C25.747 27.901 25.1027 27.3975 24.3947 27.4843Z" fill="white"/>
</svg>
