<svg width="105" height="105" viewBox="0 0 105 105" fill="none" xmlns="http://www.w3.org/2000/svg">
<path fill-rule="evenodd" clip-rule="evenodd" d="M104.292 52.4997C104.292 81.1034 81.1037 104.291 52.5 104.291C23.8962 104.291 0.708328 81.1034 0.708328 52.4997C0.708328 23.8959 23.8962 0.708008 52.5 0.708008C81.1037 0.708008 104.292 23.8959 104.292 52.4997ZM90.1667 51.5233C90.1667 46.5325 83.9171 41.8022 74.3341 38.8704C76.547 29.1054 75.5646 21.3335 71.2329 18.8443C70.1888 18.2596 69.0078 17.9637 67.8115 17.987V17.9717C63.5866 17.9717 58.059 20.9819 52.4686 26.2019C46.8814 21.0164 41.3507 18.0345 37.1289 18.0345V18.0502C35.8419 18.0502 34.6711 18.3264 33.6604 18.9071C29.3444 21.3963 28.3776 29.1493 30.6031 38.8861C21.0515 41.8367 14.8333 46.5482 14.8333 51.5233C14.8333 56.5141 21.0829 61.2445 30.6659 64.173C28.453 73.9413 29.4354 81.7132 33.7671 84.1992C34.7653 84.783 35.9329 85.0592 37.2199 85.0592C41.4448 85.0592 46.9724 82.049 52.5628 76.829C58.15 82.0176 63.6776 84.9964 67.9025 84.9964C69.1145 85.022 70.3114 84.7252 71.371 84.1364C75.687 81.6504 76.6537 73.8973 74.4283 64.1605C83.9485 61.2288 90.1667 56.4985 90.1667 51.5233ZM54.9107 28.5969C59.9074 23.9542 64.5977 21.4063 67.7927 21.3963V21.4088C68.4989 21.4088 69.0671 21.5501 69.5442 21.8106C71.6315 23.0096 72.5387 27.5673 71.8324 33.4339C71.6629 34.8778 71.3867 36.397 71.0477 37.9476C67.8386 37.1743 64.5816 36.6154 61.2983 36.2746C59.3423 33.5761 57.2084 31.0111 54.9107 28.5969ZM37.1289 21.4559C40.3086 21.4559 45.0232 23.9921 50.0297 28.6126C47.8796 30.8726 45.7294 33.4339 43.686 36.2746C40.3959 36.6116 37.1331 37.1759 33.9209 37.9633C33.5814 36.4937 33.3143 35.0082 33.1205 33.5124C32.3986 27.6426 33.29 23.085 35.3648 21.8734C35.8231 21.5971 36.4226 21.4716 37.1289 21.4716V21.4559ZM70.1719 41.2811C69.5755 43.3335 68.8842 45.3571 68.1003 47.3455C66.817 44.8493 65.4079 42.4198 63.8785 40.0664C66.06 40.3897 68.1631 40.7883 70.1751 41.2811H70.1719ZM63.1408 57.6347C61.9911 59.6419 60.7564 61.5992 59.4401 63.5013C54.833 63.9074 50.1993 63.9126 45.5913 63.517C42.9482 59.7415 40.6367 55.7444 38.6826 51.5704C40.6337 47.3866 42.9354 43.3754 45.563 39.5798C50.169 39.1729 54.8016 39.1666 59.4087 39.561C60.6831 41.3878 61.9292 43.3402 63.1251 45.3993C64.2928 47.4082 65.3537 49.4485 66.3205 51.5076C65.343 53.5917 64.2823 55.6357 63.1408 57.6347ZM68.1003 55.6384C68.9289 57.6944 69.6383 59.7535 70.219 61.7498C68.2101 62.2426 66.0882 62.657 63.8942 62.9771C65.4173 60.6023 66.8211 58.153 68.1003 55.6384ZM52.5314 72.0234C51.1032 70.5481 49.675 68.9065 48.2625 67.1079C49.6436 67.1707 51.0561 67.2178 52.4843 67.2178C53.9282 67.2178 55.3564 67.1864 56.7532 67.1079C55.3721 68.9065 53.9439 70.5481 52.5314 72.0234ZM41.1058 62.9771C38.9894 62.6705 36.8883 62.2662 34.8092 61.7655C35.3774 59.7849 36.0836 57.7415 36.8809 55.7012C37.5118 56.9253 38.1741 58.1558 38.896 59.3862C39.618 60.6135 40.3525 61.8126 41.1058 62.9771ZM52.4529 31.0232C53.8811 32.4985 55.3093 34.1401 56.7218 35.9387C55.3407 35.8759 53.9282 35.8289 52.5 35.8289C51.0561 35.8289 49.6279 35.8603 48.2311 35.9387C49.6122 34.1401 51.0404 32.4985 52.4529 31.0232ZM41.0901 40.0695C39.5674 42.4392 38.1636 44.8832 36.884 47.3925C36.078 45.3914 35.3709 43.3518 34.7653 41.2811C36.7742 40.804 38.896 40.3897 41.0901 40.0695ZM27.1943 59.2921C21.7577 56.9756 18.2422 53.934 18.2422 51.5233C18.2422 49.1126 21.7577 46.0554 27.1943 43.7546C28.5126 43.1864 29.9565 42.6779 31.4475 42.204C32.3232 45.211 33.4752 48.3436 34.9002 51.5547C33.5548 54.5749 32.4169 57.6833 31.4945 60.8584C30.0364 60.4069 28.6012 59.8841 27.1943 59.2921ZM35.4558 81.2329C33.3685 80.0401 32.4613 75.4762 33.1676 69.6127C33.3371 68.1688 33.6133 66.6465 33.9523 65.0959C36.9594 65.8335 40.2458 66.4017 43.7017 66.772C45.6578 69.4705 47.7917 72.0354 50.0893 74.4498C45.0828 79.1016 40.3839 81.6504 37.1885 81.6504C36.5856 81.657 35.9905 81.5146 35.4558 81.236V81.2329ZM71.8795 69.5343C72.6014 75.4008 71.71 79.9617 69.6352 81.1733C69.1769 81.4495 68.5774 81.5719 67.8711 81.5719C64.6914 81.5719 59.9768 79.0388 54.9703 74.4152C57.2583 72.0111 59.3779 69.452 61.314 66.7563C64.6041 66.4193 67.8669 65.8551 71.0791 65.0676C71.4338 66.6182 71.7069 68.1061 71.8795 69.5343ZM77.79 59.2921C76.4717 59.8602 75.0278 60.3687 73.5368 60.8427C72.5982 57.6514 71.4447 54.5274 70.084 51.4919C71.4965 48.2997 72.6297 45.1828 73.4897 42.1883C74.9526 42.6413 76.3929 43.1639 77.8057 43.7546C83.2423 46.0711 86.7578 49.1126 86.7578 51.5233C86.7421 53.934 83.2266 56.9913 77.79 59.2921ZM57.4474 56.4861C56.1311 57.8024 54.3459 58.5418 52.4845 58.5418C50.6231 58.5418 48.8379 57.8024 47.5216 56.4861C46.2054 55.1699 45.466 53.3847 45.466 51.5233C45.466 49.6618 46.2054 47.8766 47.5216 46.5604C48.8379 45.2442 50.6231 44.5047 52.4845 44.5047C54.3459 44.5047 56.1311 45.2442 57.4474 46.5604C58.7636 47.8766 59.5031 49.6618 59.5031 51.5233C59.5031 53.3847 58.7636 55.1699 57.4474 56.4861Z" fill="white"/>
</svg>
