<svg width="94" height="94" viewBox="0 0 94 94" fill="none" xmlns="http://www.w3.org/2000/svg">
<path fill-rule="evenodd" clip-rule="evenodd" d="M44.6531 93.2819C70.1866 94.6053 91.9584 74.9792 93.2817 49.4457C94.6051 23.9123 74.979 2.1405 49.4456 0.817112C23.9121 -0.50628 2.14034 19.1198 0.816952 44.6533C-0.50644 70.1867 19.1197 91.9585 44.6531 93.2819ZM5.01994 44.8704C6.22023 21.7121 26.0695 3.819 49.2278 5.01929C72.386 6.21957 90.2791 26.0689 89.0788 49.2271C87.8786 72.3853 68.0292 90.2785 44.871 89.0782C21.7128 87.8779 3.81966 68.0286 5.01994 44.8704ZM13.3405 29.8775C10.995 34.4759 9.5481 39.6265 9.26492 45.0904C8.48941 60.0529 16.5207 73.4068 28.8115 80.1966L13.3405 29.8775ZM34.4962 82.7248C37.8483 83.91 41.3924 84.6415 45.091 84.8332C49.5041 85.0619 53.7463 84.5232 57.7291 83.2968C57.6774 83.2099 57.6277 83.0856 57.5779 82.9612C57.553 82.8991 57.5282 82.8369 57.503 82.7794L47.5519 50.3619L34.4962 82.7248ZM57.529 29.4285C57.529 29.4285 55.4564 29.574 53.1803 29.5824L64.6892 70.9727L69.1253 58.5599C69.3186 58.0255 69.5074 57.507 69.6908 57.0033C71.2817 52.634 72.4669 49.3793 72.6173 46.4775C72.8591 41.8122 71.3456 38.4888 70.0473 35.893C69.8965 35.6134 69.7462 35.3373 69.5975 35.0642C68.04 32.2041 66.6612 29.6722 66.8084 26.8331C66.9892 23.3446 69.8048 20.2456 73.5034 20.4373C73.5874 20.4417 73.6709 20.4565 73.7544 20.4714C73.838 20.4863 73.9215 20.5011 74.0055 20.5055C67.601 13.9786 58.8426 9.774 49.0078 9.26426C35.8105 8.58025 23.8597 14.7458 16.5194 24.6481C17.3998 24.7358 18.2404 24.7794 18.9549 24.8164C22.9057 25.0212 29.0659 24.8769 29.0659 24.8769C31.1319 24.8576 31.1874 27.8525 29.1569 28.0002C29.1569 28.0002 27.0844 28.1456 24.8104 28.112L36.4302 69.8031L45.9952 45.4348L40.9476 28.9905C38.9367 28.7599 37.0164 28.4075 37.0164 28.4075C34.9635 28.1747 35.3769 25.0776 37.3899 25.2662C37.3899 25.2662 43.6284 26.0531 47.3269 26.2448C51.2777 26.4496 57.438 26.3053 57.438 26.3053C59.504 26.2859 59.5594 29.2809 57.529 29.4285ZM82.9211 59.0849C86.0582 49.7388 85.4225 39.5372 81.1495 30.6528C81.2566 31.8383 81.2732 33.1456 81.2013 34.5326C81.003 38.3572 80.0642 42.6492 77.6418 47.9179L64.3541 80.6902C73.1221 76.1831 79.784 68.431 82.9211 59.0849Z" fill="white"/>
</svg>
