<svg xmlns="http://www.w3.org/2000/svg" viewBox="0 0 22 22"><path d="M16.327 20.628c-.082.043-.075.057.004.017a.2.2 0 0 0 .065-.042c0-.014 0-.014-.069.025m.165-.09c-.04.033-.04.033.008.012a.2.2 0 0 0 .046-.033c0-.018-.01-.014-.054.022m.107-.064c-.039.032-.039.032.008.011a.2.2 0 0 0 .047-.033c0-.017-.011-.014-.055.022m.109-.064c-.04.032-.04.032.006.01.026-.013.047-.028.047-.032 0-.017-.011-.014-.053.022m.146-.097c-.075.05-.1.083-.032.047.046-.028.125-.09.11-.09-.029.01-.053.03-.078.043M10.28.01c-.05.003-.2.017-.332.028C6.82.32 3.896 2.003 2.042 4.595A10.9 10.9 0 0 0 .1 9.4c-.088.605-.1.784-.1 1.604s.012.995.1 1.6c.6 4.132 3.539 7.601 7.523 8.887.717.229 1.469.387 2.325.484.332.035 1.771.035 2.104 0 1.48-.165 2.728-.53 3.964-1.16.19-.097.226-.122.2-.144q-.904-1.196-1.793-2.402l-1.758-2.374-2.202-3.262a286 286 0 0 0-2.22-3.261c-.007 0-.017 1.45-.021 3.218-.008 3.097-.008 3.222-.047 3.294a.4.4 0 0 1-.19.197c-.068.032-.129.04-.454.04H7.16l-.097-.061a.4.4 0 0 1-.143-.157l-.046-.097.003-4.311.008-4.312.068-.085a.5.5 0 0 1 .157-.129c.09-.043.126-.05.498-.05.436 0 .508.017.623.143a415 415 0 0 1 2.653 3.995c1.43 2.167 3.38 5.124 4.34 6.574l1.743 2.64.086-.058a11.2 11.2 0 0 0 2.259-1.983 10.95 10.95 0 0 0 2.59-5.621c.088-.605.099-.784.099-1.604s-.011-.995-.1-1.6c-.598-4.133-3.538-7.602-7.522-8.888A11.7 11.7 0 0 0 12.09.038c-.21-.021-1.63-.047-1.81-.028m4.501 6.652a.43.43 0 0 1 .218.25c.018.058.022 1.253.018 3.946l-.007 3.867-.68-1.045-.684-1.046V9.826c0-1.82.008-2.84.017-2.89a.46.46 0 0 1 .215-.272c.086-.043.119-.046.459-.046.318 0 .373.003.444.043"/></svg>