<svg xmlns="http://www.w3.org/2000/svg" viewBox="0 0 71 70"><path fill-rule="evenodd" d="M35.502 70c19.33 0 35-15.67 35-35s-15.67-35-35-35-35 15.67-35 35 15.67 35 35 35M18.047 29.841h2.878q2.393 0 3.192.877.795.877.378 3.01-.434 2.22-1.677 3.172-1.244.95-3.786.95h-2.555zm5.357 10.534a7.4 7.4 0 0 0 2.795-1.666 8.7 8.7 0 0 0 1.71-2.127 8.4 8.4 0 0 0 .93-2.561q.668-3.403-1.006-5.299-1.674-1.9-5.317-1.9h-8.078l-3.75 19.133h4.2l.998-5.084h3.6q2.378-.003 3.918-.496m16.718-7.97-1.655 8.466H42.7l1.744-8.904.001-.006c.35-1.807.525-2.711-.803-3.922q-1.33-1.213-4.835-1.213h-3.713l.997-5.087h-4.168l-3.75 19.135h4.171l2.146-10.963h3.33q1.606 0 2.094.526.494.523.207 1.969m20.575 4.177a8.4 8.4 0 0 0 .93-2.561q.668-3.403-1.009-5.296-1.674-1.9-5.317-1.9h-8.076l-3.75 19.133h4.202l.996-5.087h3.598q2.385-.003 3.92-.496c1.045-.343 2-.913 2.796-1.666a8.6 8.6 0 0 0 1.71-2.127m-9.856-6.741h2.875c1.594 0 2.393 0 3.192.877q.799.877.38 3.01-.438 2.22-1.679 3.172-1.241.95-3.786.95h-2.555z" clip-rule="evenodd"/></svg>