<svg xmlns="http://www.w3.org/2000/svg" viewBox="0 0 71 71"><path fill-rule="evenodd" d="M35.025 70.498c19.33 0 35-15.67 35-35s-15.67-35-35-35-35 15.67-35 35 15.67 35 35 35m-31.818-35c0-17.532 14.286-31.818 31.818-31.818s31.818 14.286 31.818 31.818-14.286 31.818-31.818 31.818S3.207 53.03 3.207 35.498m5.695-11.645A28.5 28.5 0 0 0 6.42 35.498c0 11.328 6.587 21.096 16.132 25.741zm18.041 39.073a28.4 28.4 0 0 0 8.082 1.177c3.34 0 6.523-.573 9.482-1.655-.043-.063-.085-.155-.127-.247l-.064-.135-8.782-24.086zm15.305-41.141s-1.56.19-3.278.286l10.31 30.8 2.863-9.546.366-1.197c1.03-3.361 1.798-5.865 1.798-8.062 0-3.532-1.273-5.982-2.355-7.89l-.372-.609c-1.288-2.098-2.428-3.956-2.428-6.105 0-2.641 2.005-5.091 4.805-5.091q.095.002.19.016c.064.008.128.016.192.016a28.43 28.43 0 0 0-19.314-7.51c-9.991 0-18.773 5.123-23.927 12.887a38 38 0 0 0 1.845.032c2.991 0 7.637-.35 7.637-.35 1.559-.096 1.718 2.163.19 2.354 0 0-1.559.191-3.277.255l10.405 31.023 6.268-18.773-4.455-12.218c-1.527-.096-2.99-.287-2.99-.287-1.56-.095-1.369-2.45.159-2.386 0 0 4.74.35 7.54.35 2.991 0 7.637-.35 7.637-.35 1.559-.096 1.718 2.164.19 2.355M62.58 43.182a28.6 28.6 0 0 0-2.45-21.397c.127.89.19 1.877.19 2.927 0 2.895-.54 6.172-2.163 10.245l-8.75 25.264A28.6 28.6 0 0 0 62.58 43.18" clip-rule="evenodd"/></svg>